<svg width="217" height="64" viewBox="0 0 217 64" fill="none" xmlns="http://www.w3.org/2000/svg">
<g id="Group 427319872">
<path id="Vector" fill-rule="evenodd" clip-rule="evenodd" d="M14.4285 58.1642C12.6459 57.9544 10.9156 57.5874 9.23786 57.1155C7.97952 56.801 6.72119 56.3291 5.56771 55.6999C5.25312 55.5426 4.93854 55.2805 4.72881 54.9659C4.51909 54.6513 4.3618 54.2843 4.3618 53.9173C4.41423 53.9173 4.09965 51.6627 4.09965 47.3634C4.04721 45.4759 4.15208 43.6408 4.3618 41.7533C4.46666 41.1766 4.72881 40.7047 5.46284 40.7047C6.82605 40.7571 8.24168 40.9144 9.55245 41.1766C11.2302 41.4387 12.8556 41.8582 14.4285 42.3825C14.7955 42.4874 15.1101 42.6971 15.3723 43.0117C15.6344 43.2738 15.7917 43.6408 15.8441 44.0078C16.0539 46.0002 16.1587 48.045 16.1587 50.0374C16.1587 52.9735 15.949 55.9096 15.8441 56.8534C15.7393 57.7447 15.3198 58.2166 14.4285 58.1642ZM27.2216 48.0975C27.2216 47.8353 27.1692 47.5731 27.0643 47.3634C26.9595 47.1013 26.8022 46.8915 26.5924 46.7343L19.2521 39.5512C18.4132 38.6599 17.3646 38.0832 16.2112 37.8734C16.2112 37.8734 13.4323 37.1919 9.34272 36.5103C5.25312 35.8287 4.15208 35.8811 4.15208 35.8811C0.481922 35.8811 0.37706 39.761 0.32463 40.1804C0.219768 41.1242 0.0100458 43.6408 0.0100458 47.1013C-0.042385 49.985 0.114908 52.8686 0.377062 55.7523C0.691646 58.4263 2.73644 59.6322 3.6802 60.1041C5.41041 60.8381 7.19306 61.5197 9.02814 62.0965C10.9156 62.7256 12.8556 63.1975 14.848 63.617C15.2674 63.6694 17.7841 64.1413 18.99 62.5683L26.8022 52.4492C26.9595 52.2395 27.0643 52.0298 27.1692 51.82C27.2216 51.5579 27.274 51.3482 27.274 51.086L27.2216 48.0975ZM44.2616 33.312C43.1606 33.2071 42.0595 33.1547 40.906 33.2595L23.3942 34.8849C22.6601 34.9898 22.031 35.4092 21.5591 35.9335C21.2445 36.3005 21.0348 36.72 20.9299 37.1918C21.1396 37.4016 21.2445 37.5064 21.4018 37.6113L28.3227 44.6894C29.1091 45.4235 29.5286 46.1575 29.5286 47.311V51.2957C29.581 51.9249 29.4237 52.5541 29.1091 53.1308L25.3865 58.1642L29.1091 59.6322C30.4723 60.0517 31.9404 60.1565 33.3036 59.8419L49.3474 56.1194C49.3474 56.1194 52.2311 55.3329 52.2311 52.6065V42.8019C52.2311 42.5922 52.1262 42.4349 51.9165 42.4874L41.6401 44.4797C41.4828 44.5322 41.3255 44.637 41.1682 44.7419C41.0633 44.8992 41.0109 45.0565 41.0109 45.2662V50.0374C41.0109 50.0898 41.0633 50.1947 41.0633 50.2471C41.1158 50.2995 41.1682 50.352 41.2206 50.4044C41.2731 50.4568 41.3255 50.4568 41.4304 50.5093C41.4828 50.5093 41.5877 50.5093 41.6401 50.5093L44.8384 49.7752C44.9956 49.7228 45.1529 49.8277 45.1529 50.0898V51.6103C45.1529 51.7676 45.0481 51.9249 44.9432 52.0298C44.8384 52.1346 44.6811 52.1871 44.5238 52.2395L40.906 53.0259C40.906 53.0259 38.4418 53.6551 38.4418 51.0336V44.9516C38.4418 42.3301 40.3293 42.0155 40.3293 42.0155L51.6019 39.8134C51.7592 39.8134 51.8641 39.7085 51.9689 39.6037C52.0738 39.4988 52.1262 39.3415 52.1262 39.2367V36.7724C52.1262 34.046 49.5047 33.8887 49.5047 33.8887L44.2616 33.312ZM23.2893 7.62089C27.4838 7.77819 30.682 11.8154 30.4723 16.639C30.2626 21.515 26.5924 25.3425 22.5553 25.1852C18.3608 25.0279 15.3198 20.9907 15.5296 16.1147C15.6868 11.291 19.2521 7.4636 23.2893 7.62089ZM40.172 18.9984C40.3293 15.6952 42.6887 13.0737 45.4675 13.1786C48.0891 13.2834 50.2387 16.1147 50.0814 19.313C49.9241 22.6161 47.5123 25.1328 44.7335 25.0803C42.112 24.923 40.0672 22.1966 40.172 18.9984ZM54.2759 19.4178C54.2759 12.864 49.3998 7.62089 43.4227 7.62089C39.9623 7.62089 36.764 9.45597 34.7192 12.2348C33.1463 5.26151 27.3265 0.123291 20.3532 0.123291C12.0691 0.123291 5.35798 7.35874 5.41042 16.2195C5.46285 25.1852 12.174 32.4731 20.3532 32.4207C20.8251 32.4207 43.4752 30.9002 43.4227 30.9002C49.9241 30.3234 54.2759 25.8144 54.2759 19.4178Z" fill="white"/>
<path id="Vector_2" fill-rule="evenodd" clip-rule="evenodd" d="M200.558 20.0467H200.662C204.804 19.2078 209.051 18.7883 213.298 18.7883C223.889 18.7883 229.709 23.5071 229.709 33.1019L229.657 60.1038C229.657 60.5232 229.499 60.8902 229.237 61.1524C228.975 61.4146 228.608 61.6243 228.189 61.6243H221.897C221.477 61.6243 221.11 61.467 220.796 61.1524C220.534 60.8902 220.376 60.5232 220.324 60.1562V59.5795C219.38 60.5757 217.44 62.0962 212.092 62.2534C206.325 62.4107 203.546 60.7854 202.13 59.7368C200.453 58.5309 199.037 56.9055 198.093 55.0704C197.359 53.6548 196.887 52.0819 196.835 50.4565C196.625 48.2544 196.887 46.0523 197.674 43.9551C199.561 39.2888 204.49 36.6672 213.036 36.1429C215.605 35.9856 219.905 35.9856 219.905 35.9856V33.1019C219.905 28.2259 217.912 27.4918 213.508 27.4918C209.156 27.5443 204.752 28.0161 200.505 28.9075C200.348 28.9075 200.191 28.9075 200.086 28.855C199.928 28.8026 199.824 28.7502 199.719 28.6453C199.614 28.5405 199.509 28.4356 199.457 28.3307C199.404 28.2259 199.404 28.0686 199.404 27.9113C199.404 22.8255 199.404 21.5672 199.404 21.5672C199.457 21.2526 199.561 20.8856 199.771 20.6234C199.981 20.3613 200.295 20.1515 200.61 20.0467H200.558ZM206.22 48.9885C206.43 46.2096 208.946 45.3707 209.523 45.2134C211.201 44.6891 212.879 44.3745 214.609 44.2697C217.231 44.06 219.747 44.1648 219.747 44.1648V52.7635C217.65 53.8121 215.972 54.2315 213.246 54.3888C213.036 54.3888 212.774 54.3888 212.512 54.3888C210.1 54.3888 206.692 53.7072 206.168 49.5652C206.22 49.3555 206.22 49.1982 206.22 48.9885Z" fill="white"/>
<path id="Vector_3" fill-rule="evenodd" clip-rule="evenodd" d="M114.991 1.64363C114.728 1.64363 114.466 1.69605 114.257 1.80092C114.047 1.90578 113.837 2.06307 113.68 2.2728L95.5912 25.2899C95.1194 25.8666 94.0183 25.3423 94.0183 24.5034V3.37384C94.0183 2.95439 93.861 2.48252 93.5989 2.16794C93.4416 2.01064 93.2843 1.85335 93.0746 1.80092C92.8648 1.69605 92.6551 1.64363 92.4454 1.64363H85.1575C84.9478 1.64363 84.6856 1.64363 84.5284 1.74849C84.3186 1.85335 84.1089 1.95821 83.9516 2.1155C83.7943 2.2728 83.6895 2.48252 83.5846 2.69225C83.4797 2.90197 83.4797 3.11168 83.4797 3.37384V60.1039C83.4797 60.5758 83.6895 60.9953 84.004 61.3098C84.3186 61.572 84.6856 61.7293 85.1051 61.7817H92.3405C92.5503 61.7817 92.76 61.7817 92.9697 61.6769C93.1794 61.6244 93.3892 61.4671 93.5465 61.3623C93.7037 61.205 93.861 61.0477 93.9135 60.838C94.0183 60.6282 94.0708 60.4185 94.0708 60.2088V35.7236C94.0708 33.7837 95.4864 34.1507 96.0631 34.8323L117.822 60.838C118.032 61.1001 118.346 61.3623 118.661 61.5196C118.975 61.6769 119.342 61.7817 119.709 61.7817C119.709 61.7817 122.75 61.7817 129.462 61.7817C129.566 61.7817 129.671 61.7293 129.776 61.6769C129.881 61.6244 129.933 61.5196 129.986 61.4147C130.038 61.3098 130.038 61.205 130.038 61.1001C130.038 60.9953 129.986 60.8904 129.881 60.7855L105.081 31.5816C104.767 31.2146 104.609 30.7427 104.872 30.4806L125.529 2.69225C125.634 2.58738 125.634 2.48252 125.634 2.32522C125.634 2.22036 125.582 2.06307 125.529 1.95821C125.477 1.90578 125.424 1.85335 125.32 1.80092C125.267 1.74848 125.162 1.74849 125.057 1.74849L114.991 1.64363Z" fill="white"/>
<path id="Vector_4" fill-rule="evenodd" clip-rule="evenodd" d="M172.822 46.2097C172.769 46.367 172.665 46.5243 172.507 46.6292C172.35 46.734 172.193 46.7865 171.983 46.7865C171.773 46.7865 171.616 46.734 171.459 46.6292C171.301 46.5243 171.196 46.367 171.144 46.2097L161.969 21.043C161.811 20.7808 161.654 20.5187 161.392 20.3614C161.13 20.2041 160.868 20.0992 160.553 20.0992H155.834C155.467 20.0992 155.153 20.1516 154.838 20.3614C154.523 20.5711 154.314 20.8332 154.209 21.1478L145.034 46.1049C144.771 46.9438 143.513 46.9438 143.303 46.1049L136.33 21.9867C136.278 21.8819 136.225 20.9381 135.648 20.4662C135.124 20.0992 134.967 20.0992 134.285 20.0468H127.941C126.892 20.0468 126.001 20.8857 126.263 21.9343C126.263 22.0391 136.697 59.3699 136.907 60.1563C137.012 60.5233 137.169 60.8903 137.431 61.1525C137.746 61.4147 138.113 61.5719 138.532 61.5719H148.599C148.913 61.5719 149.228 61.5195 149.543 61.3622C149.805 61.2049 150.067 60.9428 150.172 60.6282L151.797 56.958L157.512 41.5434C157.564 41.3861 157.669 41.2288 157.827 41.1239C157.984 41.0191 158.141 40.9667 158.299 40.9667C158.456 40.9667 158.613 41.0191 158.77 41.1239C158.928 41.2288 159.033 41.3861 159.085 41.5434L165.953 60.3136C166.058 60.6282 166.216 60.8903 166.478 61.1525C166.792 61.4147 167.159 61.5195 167.526 61.5195H178.117C178.956 61.5195 179.638 61.0476 179.795 60.366L180.267 58.5834C180.267 58.5834 180.529 57.5872 181.001 55.6473L189.547 22.2489C189.6 22.0391 189.652 21.777 189.652 21.5148C189.652 21.2527 189.547 21.043 189.442 20.8332C189.338 20.6235 189.18 20.4138 188.971 20.3089C188.761 20.1516 188.551 20.0468 188.341 19.9943C188.184 19.9419 188.027 19.9419 187.869 19.9419H181.316C180.949 19.9419 180.634 19.9943 180.319 20.2041C180.005 20.4138 179.795 20.6759 179.69 21.043C179.481 21.8294 173.084 45.4233 172.822 46.2097Z" fill="white"/>
</g>
</svg>
