<svg width="234" height="98" viewBox="0 0 234 98" fill="none" xmlns="http://www.w3.org/2000/svg">
<g id="Lippo Group 1" clip-path="url(#clip0_1_357)">
<g id="g4">
<path id="path6" fill-rule="evenodd" clip-rule="evenodd" d="M160.792 19.1235L136.867 51.4879C141.333 56.1687 150.909 58.576 157.863 57.5462C172.668 55.1523 181.067 43.905 180.438 30.5179C179.97 18.9764 169.712 6.13765 160.752 19.1102M134.379 54.1493C120.725 67.1753 102.79 62.9091 92.8938 54.8715C81.7402 65.2227 64.4346 64.7814 53.4414 48.2782C44.4409 34.7975 47.2895 17.3047 60.7702 6.8732C72.0977 -1.96683 88.7747 -0.789938 100.089 8.11696C111.764 -3.03672 132.4 -0.18812 142.296 7.4884C151.564 -2.51515 166.998 0.17297 175.597 8.9595C184.798 18.1874 188.569 33.9684 181.348 46.2588C165.874 72.3376 137.883 58.2952 134.406 54.1493M94.9267 50.8059C99.4737 54.4168 106.027 55.2192 110.922 49.2946L119.213 39.2109L110.561 28.6857L94.9267 50.8059ZM121.701 35.6267L139.274 11.2732C131.958 6.6191 125.633 8.58504 120.805 14.9376L113.476 24.6469L121.701 35.6267ZM72.6327 43.5707L96.6251 11.2197C92.1717 6.6726 82.3821 3.99785 75.4278 5.20149C60.6632 7.47502 52.425 18.7089 52.9599 32.1495C53.3478 43.7178 63.6589 56.5566 72.6193 43.5841" fill="#FF0000"/>
<path id="path8" d="M5.08201 72.4712H12.5713L8.69292 90.6595H20.4618L19.1244 96.6777H0L5.08201 72.4712ZM26.8812 72.4712H34.3705L29.2885 96.6777H21.7992L26.8812 72.4712ZM38.8908 72.4178H51.3417C54.07 72.4178 55.8888 73.0864 56.9587 74.3569C58.0553 75.6943 58.2961 77.5666 57.8948 79.8402C57.3733 82.2876 56.2231 84.2 54.4712 85.5775C52.7058 86.9684 50.3119 87.6504 47.2761 87.6504H43.1971L41.2847 96.6509H33.782L38.8908 72.4178ZM44.2403 82.769H46.0591C47.5168 82.769 48.5867 82.5417 49.2688 82.0201C49.9509 81.5119 50.3922 80.8833 50.5527 80.0943C50.7132 79.332 50.5928 78.6767 50.1916 78.1417C49.8037 77.6068 48.9211 77.3527 47.5168 77.3527H45.377L44.2403 82.769ZM62.1343 72.4178H74.5719C77.2867 72.4178 79.1189 73.0864 80.1888 74.3569C81.2721 75.6943 81.5262 77.5666 80.9913 79.8402C80.4831 82.2876 79.3463 84.2 77.5943 85.5775C75.829 86.9684 73.4351 87.6504 70.4127 87.6504H66.2935L64.3945 96.6509H56.8918L62.1343 72.4178ZM67.4571 82.769H69.2893C70.7202 82.769 71.8035 82.5417 72.4856 82.0201C73.181 81.5119 73.609 80.8833 73.7694 80.0943C73.9299 79.332 73.8096 78.6767 73.4217 78.1417C73.0339 77.6068 72.1379 77.3527 70.7336 77.3527H68.5938L67.4571 82.769ZM82.2083 84.5611C83.0374 80.6025 84.7894 77.5399 87.4641 75.3332C90.1389 73.1132 93.4422 72.0165 97.3607 72.0165C101.4 72.0165 104.315 73.0864 106.054 75.2664C107.779 77.4062 108.193 80.4821 107.391 84.3605C106.803 87.2091 105.826 89.5227 104.489 91.3416C103.165 93.1604 101.48 94.5646 99.4604 95.6212C97.4409 96.6376 95.1005 97.1324 92.399 97.1324C89.6708 97.1324 87.5043 96.6911 85.8727 95.8351C84.2678 94.9525 83.1043 93.575 82.3821 91.6893C81.6599 89.7233 81.5797 87.4498 82.2484 84.5076M89.6976 84.6146C89.176 87.0486 89.2562 88.7604 89.965 89.8838C90.6471 90.9537 91.8373 91.4887 93.3085 91.4887C94.8999 91.4887 96.2774 90.9671 97.3741 89.9106C98.4841 88.8808 99.3133 87.0085 99.9017 84.2936C100.37 82.0067 100.263 80.335 99.5674 79.2785C98.8719 78.2353 97.7352 77.7004 96.1571 77.7004C94.6458 77.7004 93.3085 78.2353 92.1717 79.3052C91.0349 80.3617 90.2726 82.1003 89.7377 84.6413M126.355 87.8644L127.425 82.9429H138.712L136.586 93.04C134.138 94.4978 131.985 95.5008 130.207 95.9822C128.441 96.5172 126.408 96.7847 124.135 96.7847C121.34 96.7847 119.146 96.3032 117.582 95.3403C116.03 94.3908 114.947 92.9598 114.385 91.0741C113.797 89.175 113.77 86.9951 114.292 84.5611C114.827 81.98 115.843 79.7332 117.314 77.8207C118.772 75.9217 120.644 74.4639 122.905 73.4876C124.656 72.712 126.903 72.3375 129.605 72.3375C132.213 72.3375 134.152 72.605 135.355 73.0062C136.546 73.5411 137.495 74.2098 138.164 75.2129C138.806 76.149 139.234 77.4864 139.234 78.9842L131.932 80.2414C131.825 79.3721 131.477 78.6767 130.889 78.2086C130.3 77.7405 129.444 77.4864 128.374 77.4864C126.77 77.4864 125.379 78.0615 124.202 79.1715C123.011 80.2815 122.169 82.0468 121.661 84.4407C121.112 87.0085 121.193 88.8541 121.928 89.924C122.664 90.9938 123.934 91.5288 125.539 91.5689C126.342 91.5689 127.171 91.4619 127.946 91.2346C128.749 90.9939 129.672 90.5659 130.728 90.0176L131.21 87.7975H126.355V87.8644ZM137.549 96.437L142.537 72.7788H154.707C156.954 72.7788 158.719 72.9126 159.789 73.3138C160.899 73.715 161.662 74.3837 162.197 75.4803C162.718 76.5502 162.865 77.7539 162.464 79.332C162.183 80.6426 161.675 81.766 160.913 82.7155C160.137 83.6784 159.214 84.4407 158.104 84.9891C157.409 85.3769 156.486 85.6979 155.322 85.9386C156.152 86.2061 156.794 86.4735 157.061 86.8079C157.262 86.9416 157.596 87.4766 157.997 88.0516C158.358 88.7203 158.666 89.1215 158.666 89.5227L160.752 96.3701H152.487L150.12 89.1483C149.826 88.2255 149.532 87.6103 149.197 87.3294C148.743 86.9684 148.181 86.7678 147.512 86.7678H146.87L144.851 96.3701H137.549V96.437ZM147.86 82.3812H150.909C151.27 82.3812 151.912 82.2742 152.915 82.0602C153.423 81.9532 153.878 81.7125 154.253 81.3246C154.64 80.9101 154.894 80.4554 154.988 79.9472C155.162 79.1715 155.042 78.583 154.64 78.1818C154.253 77.7672 153.383 77.5666 152.073 77.5666H148.85L147.86 82.3812Z" fill="white"/>
<path id="path10" d="M162.009 84.628C162.812 80.7897 164.523 77.7673 167.131 75.6141C169.739 73.4743 172.962 72.391 176.787 72.391C180.732 72.391 183.474 73.4609 185.213 75.5606C186.898 77.7004 187.352 80.6426 186.55 84.4407C185.961 87.1957 185.025 89.4559 183.728 91.2346C182.431 93.0133 180.786 94.3908 178.82 95.3805C176.854 96.3567 174.567 96.8649 171.946 96.8649C169.271 96.8649 167.171 96.4236 165.593 95.5811C164.015 94.7385 162.892 93.3878 162.183 91.5422C161.488 89.7234 161.421 87.4498 161.956 84.6414M169.311 84.6681C168.816 87.0486 168.897 88.814 169.579 89.8304C170.247 90.9003 171.317 91.4352 172.922 91.3817C174.5 91.3817 175.811 90.8735 176.881 89.8571C177.964 88.8273 178.793 86.9951 179.355 84.3605C179.81 82.1405 179.716 80.4955 179.021 79.4657C178.325 78.4493 177.228 77.9277 175.69 77.9277C174.219 77.9277 172.935 78.4493 171.839 79.5326C170.622 80.4955 169.846 82.2341 169.311 84.6414M205.888 72.7789H213.177L210.195 86.8748C209.887 88.2656 209.419 89.5763 208.71 90.8869C208.015 92.1306 207.105 93.2139 205.982 94.1501C204.859 95.0729 203.722 95.7148 202.625 96.1026C201.101 96.6376 199.335 96.9051 197.356 96.9051C196.192 96.9051 194.962 96.8248 193.638 96.6643C192.314 96.4905 191.231 96.1829 190.415 95.7014C189.599 95.2333 188.93 94.5513 188.342 93.682C187.78 92.7726 187.446 91.8765 187.366 90.9404C187.219 89.4425 187.272 88.1051 187.526 86.955L190.495 72.8591H197.77L194.735 87.2893C194.467 88.5866 194.614 89.5629 195.136 90.3118C195.698 90.9805 196.607 91.3817 197.811 91.3951C199.068 91.3951 200.138 91.0474 200.994 90.3252C201.876 89.6164 202.438 88.6 202.705 87.2893L205.888 72.7789ZM215.223 72.7789H227.38C230.028 72.7789 231.927 73.4475 232.863 74.6779C233.933 75.8816 234.2 77.7539 233.666 80.0274C233.157 82.3946 232.061 84.2803 230.322 85.6043C228.597 86.9684 226.27 87.6371 223.328 87.6371H219.342L217.483 96.4102H210.128L215.223 72.7789ZM220.452 82.876H222.231C223.649 82.876 224.678 82.6353 225.347 82.1405C226.029 81.659 226.444 81.0304 226.604 80.2681C226.765 79.5326 226.644 78.904 226.27 78.3824C225.882 77.8742 224.999 77.6068 223.622 77.6068H221.549L220.452 82.876Z" fill="white"/>
</g>
</g>
<defs>
<clipPath id="clip0_1_357">
<rect width="234" height="97.7468" fill="white"/>
</clipPath>
</defs>
</svg>
