<svg width="130" height="101" viewBox="0 0 130 101" fill="none" xmlns="http://www.w3.org/2000/svg">
<g id="China_Bank_Savings 1" style="mix-blend-mode:luminosity" clip-path="url(#clip0_1_339)">
<path id="Vector" d="M-23.5098 22.6876C-16.4966 20.1124 -8.9169 20.636 -1.56894 20.6618C-1.50027 26.0096 -1.56894 31.3489 -1.56894 36.6968C-6.2215 36.7655 -11.0114 36.2161 -15.5266 37.7355C-25.1322 40.5768 -32.1539 50.5085 -31.4414 60.5261C-31.1745 64.8719 -29.6757 69.0518 -27.1204 72.577C-24.565 76.1022 -21.0587 78.827 -17.0117 80.4326C-11.3462 83.0078 -5.0369 81.6944 0.954769 82.1494C4.30255 88.8621 9.95944 94.0211 16.1314 98.1071C5.83051 97.8582 -4.41884 98.2531 -14.6768 97.8239C-24.7425 96.985 -34.0678 92.1989 -40.6178 84.51C-44.7432 79.6976 -47.6209 73.944 -48.9972 67.7566C-50.3735 61.5692 -50.2059 55.1382 -48.5095 49.0308C-46.813 42.9234 -43.6396 37.3274 -39.2693 32.7363C-34.899 28.1451 -29.4661 24.7 -23.4497 22.7048L-23.5098 22.6876Z" fill="#E01E1C"/>
<path id="Vector_2" d="M68.3138 39.6325C69.7388 28.851 80.3916 21.2197 90.8126 20.6618C100.659 20.5759 110.504 20.6618 120.342 20.6618C120.342 26.0526 120.342 31.4348 120.342 36.8256C111.449 36.9028 102.538 36.7054 93.6453 36.9114C88.4949 37.1003 85.1472 43.3065 87.5765 47.753C88.6806 49.717 90.5065 51.1735 92.6668 51.8133C99.9804 52.4915 107.663 50.6116 114.651 53.5301C119.331 55.3909 123.278 58.7258 125.894 63.03C128.51 67.3343 129.653 72.3736 129.149 77.3852C128.291 88.6046 118.058 98.1243 106.83 98.1243C93.9544 98.1243 81.1556 98.1243 68.3138 98.1243C74.804 94.4473 80.1287 89.0185 83.6793 82.4584C89.9542 82.4584 96.2206 82.2009 102.487 82.0978C103.848 82.0496 105.164 81.5979 106.267 80.8C107.371 80.0022 108.212 78.8942 108.685 77.617C111.028 73.1876 107.526 67.2045 102.581 66.844C97.2593 66.389 91.8856 66.9384 86.5464 66.5006C85.8682 54.9465 77.6018 45.5641 68.3138 39.6325Z" fill="#E01E1C"/>
<path id="Vector_3" d="M2.52568 0C9.81354 0 17.1186 0 24.3978 0C24.3978 12.2237 24.3978 24.4474 24.3978 36.6711C35.0592 37.0316 46.064 35.4436 56.3992 38.8085C66.0134 41.5983 74.915 47.9677 79.3616 57.0925C83.9454 66.0285 82.5033 77.3681 76.5031 85.2912C64.0991 101.438 39.8234 105.035 21.9943 96.4505C13.8051 92.7336 6.8091 85.892 3.87335 77.2737C2.26814 73.0675 2.50849 68.4922 2.50849 64.0714C2.52566 42.72 2.5314 21.3629 2.52568 0ZM24.4408 53.5044C24.4923 58.7235 24.1747 63.9598 24.5953 69.1617C25.3764 75.7028 31.4625 80.321 37.5572 81.6086C46.27 83.7632 57.5581 79.557 59.8757 70.2004C61.7557 61.6764 53.5922 54.4572 45.6691 53.6417C38.6045 53.2554 31.514 53.5559 24.4408 53.5044Z" fill="#F8D346"/>
</g>
<defs>
<clipPath id="clip0_1_339">
<rect width="179.287" height="101" fill="white" transform="translate(-50)"/>
</clipPath>
</defs>
</svg>
