<svg width="243" height="53" viewBox="0 0 243 53" fill="none" xmlns="http://www.w3.org/2000/svg">
<path id="Vector" fill-rule="evenodd" clip-rule="evenodd" d="M134.142 19.6955C139.466 19.6955 143.724 21.8248 146.918 25.8171L142.127 30.8741V30.6079C140.264 27.9463 137.07 26.3494 133.876 26.3494C131.481 26.3494 129.085 27.414 127.489 29.011C125.625 30.874 124.827 33.2695 124.827 36.1972C124.827 39.391 125.625 41.7864 127.489 43.6495C129.352 45.5126 131.747 46.3111 134.409 46.3111C137.869 46.3111 140.796 44.7141 142.926 41.7864V41.5203L147.716 46.5772C144.522 50.5696 139.998 52.6988 134.675 52.6988C129.884 52.6988 125.625 51.1019 122.432 48.1742C119.238 45.2464 117.641 40.988 117.641 36.1972C117.641 31.1402 119.238 27.1479 122.432 23.954C125.359 21.2924 129.352 19.6955 134.142 19.6955ZM69.7327 20.2278V26.8817H52.965V33.2694H68.9343V39.9233H52.965V46.0449H69.7327V52.6988H45.7788V20.2278H69.7327ZM208.666 20.2278C212.392 20.2278 215.32 21.2924 217.449 23.1555C219.844 25.0186 220.909 27.6802 220.909 30.8741C220.909 35.1325 218.514 39.1249 214.788 40.988L221.974 52.6988H213.723L207.335 42.3187H202.544V52.6988H195.358V20.2278H208.666ZM7.45236 14.6386L16.7678 32.2048H17.034L26.0832 14.6386H33.2694V47.1095H26.0832V28.4786L18.897 40.988H14.3724L7.45236 28.4786V47.1095H0V14.6386H7.45236ZM95.2837 14.6386C99.0099 14.6386 101.938 15.7032 104.067 17.5663C106.462 19.4294 107.527 22.0909 107.527 25.2848C107.527 29.5433 105.131 33.5356 101.405 35.3987L108.591 47.1095H100.341L93.9529 36.7295H88.896V47.1095H81.7098V14.6386H95.2837ZM173.267 14.6386L186.043 47.1095H178.59L176.195 41.2541H163.686L161.556 47.1095H154.104V46.8434L166.613 14.6386H173.267ZM239.806 17.5663V47.1095H232.62V17.5663H239.806ZM207.601 26.8817H202.544V35.931H207.601C211.86 35.931 213.989 34.3341 213.989 31.4064C213.989 28.2125 211.86 26.8817 207.601 26.8817ZM170.073 24.4863L166.081 34.8664H173.8L170.073 24.4863ZM94.2191 21.2924H89.1621V30.3417H94.2191C98.4776 30.3417 100.607 28.7448 100.607 25.8171C100.607 22.6232 98.7437 21.2924 94.2191 21.2924ZM235.282 0L243 3.19387L239.806 11.1785L232.088 7.98467L235.282 0Z" fill="white"/>
</svg>
