<svg width="256" height="72" viewBox="0 0 256 72" fill="none" xmlns="http://www.w3.org/2000/svg">
<g id="Group">
<path id="Vector" d="M82.0095 49.9656H93.4092V56.0908H75.8276V25.4648H81.9528L82.0095 49.9656ZM120.405 44.8045C120.405 51.3834 115.074 56.7146 108.495 56.7146C101.916 56.7146 96.5852 51.3834 96.5852 44.8045V25.4648H102.71V44.8045C102.71 47.9806 105.319 50.5327 108.495 50.5327C110.027 50.5894 111.501 49.9656 112.579 48.888C113.656 47.8104 114.28 46.3358 114.28 44.8045V25.4648H120.405V44.8045ZM148.649 56.0908L131.408 38.1689V56.0908H125.283V25.3514H127.211L144.169 42.6494V25.4648H150.294V56.0908H148.649ZM170.314 25.4648L184.833 56.2042H178.028L169.294 37.545L159.822 56.0908H152.96L168.613 25.3514L170.314 25.4648ZM196.12 25.4648C200.203 25.4648 204.06 27.0528 206.952 29.9453C209.845 32.8377 211.433 36.751 211.489 40.8345C211.489 42.8762 211.092 44.9747 210.298 46.8463C209.561 48.6611 208.427 50.3626 207.009 51.7237C204.116 54.5595 200.203 56.1475 196.176 56.1475H190.051H187.556V25.4081L196.12 25.4648ZM196.12 50.079C201.224 50.079 205.364 45.9388 205.364 40.8345C205.364 35.7302 201.224 31.59 196.12 31.59H193.567V50.0223H196.12V50.079ZM214.495 56.0908V25.4648H220.677V56.0908H214.495ZM255.5 40.7778C255.5 49.5686 248.411 56.6579 239.62 56.6579C230.829 56.6579 223.74 49.5686 223.74 40.7778C223.74 31.987 230.829 24.8977 239.62 24.8977C248.354 24.8977 255.5 31.987 255.5 40.7778ZM229.978 40.7778C229.978 46.0523 234.289 50.3626 239.563 50.3626C244.838 50.3626 249.148 46.0523 249.148 40.7778C249.148 35.5033 244.838 31.193 239.563 31.193C234.289 31.193 230.035 35.4466 229.978 40.7778ZM32.5543 13.3846C46.5061 13.3846 57.7923 24.6708 57.7923 38.6226C57.7923 52.5745 46.5061 63.8607 32.5543 63.8607C18.6024 63.8607 7.3162 52.5745 7.3162 38.6226C7.3162 24.6708 18.6024 13.3846 32.5543 13.3846ZM32.5543 6.06836C14.5757 6.06836 0 20.644 0 38.6226C0 56.6012 14.5757 71.1769 32.5543 71.1769C50.5328 71.1769 65.1085 56.6012 65.1085 38.6226C65.1085 20.644 50.5328 6.06836 32.5543 6.06836Z" fill="white"/>
<path id="Vector_2" d="M65.1085 12.1368C68.46 12.1368 71.177 9.41988 71.177 6.06835C71.177 2.71682 68.46 -0.000127316 65.1085 -0.000127316C61.757 -0.000127316 59.04 2.71682 59.04 6.06835C59.04 9.41988 61.757 12.1368 65.1085 12.1368Z" fill="white"/>
</g>
</svg>
